<?xml version="1.0" standalone="no"?><!DOCTYPE svg PUBLIC "-//W3C//DTD SVG 1.1//EN" "http://www.w3.org/Graphics/SVG/1.1/DTD/svg11.dtd"><svg t="1741883821034" class="icon" viewBox="0 0 1024 1024" version="1.1" xmlns="http://www.w3.org/2000/svg" p-id="10907" xmlns:xlink="http://www.w3.org/1999/xlink" width="200" height="200"><path d="M512 1024a512 512 0 1 1 512-512 512 512 0 0 1-512 512z m0-960a448 448 0 1 0 448 448A448 448 0 0 0 512 64z m-85.44 654.24C413.12 726.624 384 723.072 384 704V320c0-17.312 27.52-24.032 43.2-13.888 12.48 8.096 262.4 171.712 283.84 185.6a24.672 24.672 0 0 1 0 40.32c-15.36 10.336-266.56 174.784-284.48 186.208z" fill="#ffffff" p-id="10908"></path></svg>