<?xml version="1.0" standalone="no"?><!DOCTYPE svg PUBLIC "-//W3C//DTD SVG 1.1//EN" "http://www.w3.org/Graphics/SVG/1.1/DTD/svg11.dtd"><svg t="1734779390105" class="icon" viewBox="0 0 1024 1024" version="1.1" xmlns="http://www.w3.org/2000/svg" p-id="2379" xmlns:xlink="http://www.w3.org/1999/xlink" width="200" height="200"><path d="M259.35143822 494.52373333v37.10793956a34.95253333 34.95253333 0 0 0 31.63204267 34.95253333V459.5712a34.95253333 34.95253333 0 0 0-31.63204267 34.95253333zM736.74478933 459.22167467v106.83824355a34.95253333 34.95253333 0 0 0 32.27283912-34.95253333v-37.04968534a34.95253333 34.95253333 0 0 0-32.27283912-34.83602488z" fill="#6893DF" p-id="2380"></path><path d="M510.36888178 19.98483911a487.35482311 487.35482311 0 1 0 487.29656889 487.35482311 487.93736533 487.93736533 0 0 0-487.29656889-487.35482311z m328.55381333 511.23905422a104.8576 104.8576 0 0 1-104.8576 104.8576H721.7152c-19.57341867 50.04037689-60.00184889 102.58568533-132.70311822 111.20731022a58.83676445 58.83676445 0 1 1-10.54401423-69.26427022c72.81777778-7.51479467 86.33275733-91.16785778 88.19689245-106.954752v-125.82912a152.91733333 152.91733333 0 0 0-305.36863289-12.52465778V581.90506667a54.93373155 54.93373155 0 0 1-54.81722311 54.87547733h-12.17513245a104.8576 104.8576 0 0 1-104.8576-104.8576V494.52373333a104.8576 104.8576 0 0 1 104.8576-104.8576h3.72827023a222.88065422 222.88065422 0 0 1 431.60553244-0.40777955h4.42732089a104.8576 104.8576 0 0 1 104.8576 104.8576z" fill="#6893DF" p-id="2381"></path></svg>